<?xml version="1.0" encoding="utf-8"?>
<!-- Generator: Adobe Illustrator 14.0.0, SVG Export Plug-In . SVG Version: 6.00 Build 43363)  -->
<!DOCTYPE svg PUBLIC "-//W3C//DTD SVG 1.1//EN" "http://www.w3.org/Graphics/SVG/1.1/DTD/svg11.dtd">
<svg xmlns:dc="http://purl.org/dc/elements/1.1/" xmlns:svg="http://www.w3.org/2000/svg" xmlns:inkscape="http://www.inkscape.org/namespaces/inkscape" xmlns:cc="http://creativecommons.org/ns#" xmlns:sodipodi="http://sodipodi.sourceforge.net/DTD/sodipodi-0.dtd" xmlns:rdf="http://www.w3.org/1999/02/22-rdf-syntax-ns#" xmlns="http://www.w3.org/2000/svg" xmlns:xlink="http://www.w3.org/1999/xlink" version="1.1" id="svg2" inkscape:version="0.47pre4 r22446" sodipodi:docname="Angola_Ethnic_map_1970.svg" x="0px" y="0px" width="640px" height="785.5px" viewBox="0 0 640 785.5" enable-background="new 0 0 640 785.5" xml:space="preserve">
<g id="map">
	<path id="path96" fill="#A02932" d="M253,583.688c4.5,3.03,4.5,9.08,2,9.562c-2.5,0.471-13.5,3.521-27.5,0c0,0-9.5,1.971-13,3.471   c-2-5.5-2-7.931,6.5-10.721c0.5,0.141,1,0.221,1.5,0.221C226.5,586.219,250,587.148,253,583.688z"/>
	<path id="path116" fill="#A02932" d="M134.5,596.719c3,3,6.5,9.5,0,20c-7,8.5-7.5,26-7,29s4,16.79,5,19.645   c-2,7.355-4.314,15.855-7.16,18.355c-2.84,2.5-6.84,5.99-6.84,5.99s-6-5.54-6-12.271c0-6.72,1-25.72,3-38.72s5.5-28.38,5.5-34.688   C124.5,597.719,126,589.219,134.5,596.719z"/>
	<path id="path136" fill="#A02932" d="M204.81,633.929c4.8-0.79,4.688,0.79,10.688,7.819c-2.5,4.521-21.39,11.971-21.39,11.971   c-6.38-2-3.61-1.5-2.61-5C198,644.719,200,634.719,204.81,633.929z"/>
	<path id="path156" fill="#A02932" d="M251.5,677.438c2,5.73-1.5,9.78-7.5,12.271c-2.5,15.479-14,9.51-14,9.51c0.5-7,0-6,7-13   C243.99,679.219,247.5,678.219,251.5,677.438z"/>
	<path id="path176" fill="#A02932" d="M300.469,680.719l4.529,3c0,7,0,0-2.5,8c-5.25,8.939-13,0-13,0c0-5.5-8.81-8-8.81-8   s7.81-7,9.31-6.275C291.5,678.169,300.469,680.719,300.469,680.719z"/>
	<path id="path196" fill="#A02932" d="M543,754.219c0,0,0,0-3.5,1.5c-2.5,5-11,6-19,7.91c-6.14-3.54-20.64-0.11-21.11-0.011   c-1.938-0.646-3.903-0.96-6.04-0.801c-0.13,0.051-0.25,0.101-0.38,0.146c-6.604-0.761-15.97-2.13-15.97-3.75c0-2.5,5.5-5,8.5-5.5   s19.5-6,23-5.5s7.5,2,12.69,2c5.188,0,10.31-2,15.38-2C541.63,748.219,543,754.219,543,754.219z"/>
	<path id="path216" fill="#A02932" d="M333,712.108c4,3.105,7.5,6.525,7.5,8.815s-5.109,4.649-7.5,5.79c0,0-15,8-28,5.5   s-12.064-12.5-4.529-16.5c8.529-1.5,11.909,0,17.975,0C324.5,715.718,329.5,711.509,333,712.108z"/>
	<path id="path236" fill="#A02932" d="M374.5,686.219c2.03,11.271,0.41,19.435-1.99,25c0,0-2.93,2.01-6.97,0   c-4.04-2-5.04-4.729-7.54-10.87c0.5-6.13,2.5-6.271-3-11.445c-3.5-7.685-1.5-10.185,0-13.685s12.03,3.5,18.01,8.5l0.016-0.01   C373.54,684.528,374.03,685.368,374.5,686.219z"/>
	<path id="path256" fill="#ECC65F" d="M430,761.709c0,0,2.71-9.761-3.25-18.301c0.75-0.149,21.77-4.226,22.75-5.689   c1-1.5,12-13,16-13.5s19.5,1,23.5,0s16-9.5,19.5-12s25.13-15.5,28.07-15.75c1.023,2.312,2.063,5.145,2.773,8.354   c8,8,11,8.5,15,11.5c1,6.5,1,6.5,1,6.5s5,1.5,10,6.5s13,9.5,14,12.5c9,3,12.5,7.5,14.5,11c-12,3-82,17.5-82,17.5   c-4.693-2.688-8.5-5.369-12.46-6.699c0.477-0.104,14.977-3.529,21.11,0.011c8-1.91,16.5-2.91,19-7.91c3.5-1.5,3.5-1.5,3.5-1.5   s-1.37-6-6.43-6c-5.07,0-10.19,2-15.383,2c-5.188,0-9.188-1.5-12.688-2s-20,5-23,5.5s-8.5,3-8.5,5.5c0,1.62,9.359,2.99,15.97,3.75   c-8.68,3.354-10.72,3.41-17.62,7.354c-7.5-6.5-3-10.5-24.5-9.5c-11.27,0.521-17.04,0.771-20.85,0.896L430,761.709L430,761.709z"/>
	<path id="path276" fill="#F36F40" d="M220.45,729.719c0.47,6.859,2.74,12.021,3.38,13.354c-29.88-0.145-52.646-0.25-53.979-0.25   c-5.5-4-7.5-4.5-9.5-6.5s-3.5,0-7.5-2s-2-7.5-4-8.5s-3.5,1.5-8-0.5s-7.5-4-15.5-1.5s-4.5,9.5-12,12.5s-12-2-12-2s0.5,2.5-6,2   s-5-3.5-10-4s-8,4.5-11.5,4.5s-3.45-1.845-1.95-11.345c0.229-1.43,1.45-8.326,5.45-17c2.55-5.524-6.42-9.655-3.67-24.655   c-0.79-4.595-5.83-4-2.58-8.5c5.5-2.5,10.75-3.25,13.75-28c2.25-2.25,4-8,3.75-14.25c5.25-7,8.75-19,9-40.25   c0.024-2.71,2.604-4.595,7.25-12c0.404-2.449,0.76-4.67,1.104-6.688c0,0,23.73,8.09,30.896,12.59c10.646,0.5,18.146-0.5,23.646,0   c0.84,0.08,1.66,0.29,2.46,0.604v0.011c-0.1,0.398-1.984,8.479,0,11.893c2.04,3.5,8.04,10.988,6.54,15.5   c-1.5,4.5-9,16.42-12,19.211c-3,2.789-8,15.342,15,38.566c23,23.223,36,18.723,43,23.973   C220,706.719,221.41,723.719,220.45,729.719z M134.5,616.719c6.5-10.5,3-17,0-20c-8.5-7.5-10,1-13.5,7.312   c0,6.312-3.5,21.688-5.5,34.688s-3,32-3,38.725c0,6.729,6,12.271,6,12.271s4-3.489,6.84-5.989c2.846-2.5,5.16-11,7.16-18.355   c-1-2.854-4.5-16.645-5-19.645S127.5,625.219,134.5,616.719z"/>
	<path id="path296" fill="#EFBA83" d="M426.75,743.408c5.96,8.54,3.25,18.301,3.25,18.301v0.01c-3.46,0.104-5.29,0.104-8.15,0.104   c-6,0-9.5-2-9.5-2s-4.5,1-16.499,0c-11-5.5-9-2.5-13.5-5.5s-9-10.5-9-10.5S296.3,743.429,237,743.139   c6.49-21.58,10-32.92,12.5-37.42s30.5-10.5,40-14c0,0,7.75,8.939,13,0c2.5-8,2.5-1,2.5-8c4.5,0,13.44-11.221,13.44-11.221   c5.92,3.779,12.01,5.091,16.3,4.931c6.29,21.939,18.02,35.28,30.8,43.5c19.97,12.83,42.52,13.16,50.96,14.29   C421.37,737.459,424.62,740.358,426.75,743.408z M340.5,720.929c0-2.29-3.5-5.71-7.5-8.815c-3.5-0.604-8.5,3.605-14.56,3.605   c-6.062,0-9.44-1.5-17.975,0c-7.535,4-8.471,14,4.529,16.5s28-5.5,28-5.5C335.385,725.578,340.5,723.219,340.5,720.929z"/>
	<path id="path316" fill="#62AEC9" d="M318.44,672.498c0,0-8.94,11.221-13.44,11.221l-4.529-3c0,0-8.971-2.55-10.471-3.275   c-1.5-0.725-9.31,6.275-9.31,6.275s8.81,2.5,8.81,8c-9.5,3.5-37.5,9.5-40,14s-6.01,15.84-12.5,37.42   c-4.51-0.021-8.91-0.04-13.17-0.065c-0.64-1.33-2.91-6.489-3.38-13.354c0.96-6-0.45-23-4.95-33.25c-7-5.25-20-0.75-43-23.971   c-23-23.229-18-35.779-15-38.569s10.5-14.71,12-19.21c1.5-4.51-4.5-12-6.54-15.5c-1.984-3.41-0.1-11.49,0-11.891   c4.45,1.71,8.46,6.311,13.54,5.891c6-0.5,29-14,33.5-13c3.94,0.88,7.49,4.812,11,5.779c-8.5,2.79-8.5,5.221-6.5,10.721   c3.5-1.5,13-3.471,13-3.471c-0.5,10.471-5,13.971,24.5,28.971c17.5,9,25.54,14.5,30.271,10.25   c6.54,6.979,12.938,11.99,15.729,12.75c6,3.5,12.5,13,14.5,22.5C314.41,669.629,316.42,671.209,318.44,672.498z M244,689.709   c6-2.49,9.5-6.54,7.5-12.271c-4,0.78-7.51,1.78-14.5,8.78c-7,7-6.5,6-7,13C230,699.219,241.5,705.188,244,689.709z M215.5,641.748   c-6-7.029-5.89-8.609-10.688-7.819c-4.812,0.79-6.812,10.79-13.312,14.79c-1,3.5-3.77,3,2.61,5   C194.11,653.719,213,646.269,215.5,641.748z"/>
	<path id="path336" fill="#6A89A8" d="M342.5,489.219c2-2.5,7.5-6.5,12.5,0c-2,10-31,32.5-35,34s-15.569,10-19.529,14   c-1.971,7.5,0.029,12-5.971,17.5s-28.5,24-31,28s-4.5,9,2.5,26c3.45,8.37,9.92,16.99,16.271,23.75   c-4.73,4.25-12.771-1.25-30.271-10.25c-29.5-15-25-18.5-24.5-28.971c14,3.521,25,0.471,27.5,0c2.5-0.479,2.5-6.529-2-9.561   c-3,3.46-26.5,2.525-30.5,2.525c-0.5,0-1-0.08-1.5-0.22c-3.51-0.972-7.06-4.9-11-5.78c-4.5-1-27.5,12.5-33.5,13   c-5.08,0.42-9.09-4.181-13.54-5.891v-0.012c-0.8-0.312-1.62-0.521-2.46-0.604c-5.5-0.5-13,0.5-23.646,0   c-7.16-4.5-30.896-12.59-30.896-12.59c1.79-10.4,3.44-15.67,11.396-20.062c4.5-7.5,6.654-7.274,6.75-9.75   c0.229-6.729,2.75-6.25,8.12-14.011c4.88,0.011,6.38-0.739,11.13-1.989c5.25-5.75,6.25-8.551,6.5-15.75c8.75-1,5.75-10.75,12.25-18   c-1.75-5.5,0.188-22.311,1-28.25c1.25-9.25-5.75-12.75-5-25c-6-2.75-8.25-5.5-11.75-13c0.31-9.447-1-13-9.5-18.5   c0,0,38.146,4.899,53.146,10.899c12.5,2.5,15.5,2.5,18.5,8.5c0,12.5-3,22,9,30c14.5,3.5,34.5,7,41.5,3c11.5,0,34-4,38-9.5   c2.86-3.931,5.46-9.46,9.09-12.899c0.062,0.21,1.011,3.479,3.91,5.899c3,2.5,9.5,5.357,10,13.93c8,6.57,4,5.07,8,6.57   c-1,7-3,24.5,0,26S340.5,491.719,342.5,489.219z"/>
	<path id="path356" fill="#89BB54" d="M598.844,455.318c10.5,2.5,13.5,3,15.5,1c-0.653,13.602-4.85,18.896-23.85,41.29   c-19,21.88-20.021,48.71-20.021,48.71l-38.132,1l0.5,142.5c0,0,1.86,2.479,3.727,6.646c-2.94,0.25-24.57,13.25-28.07,15.75   s-15.5,11-19.5,12s-19.5-0.5-23.5,0s-15,12-16,13.5c-0.98,1.47-22,5.54-22.75,5.689c-2.13-3.054-5.38-5.95-10.25-8.189   c-8.44-1.13-30.99-1.46-50.96-14.29c0,0,4.061-2.93,6.97-9.71c2.4-5.565,4.021-13.729,1.99-25c-0.47-0.851-0.96-1.688-1.479-2.511   c-11.605-18.409-34.075-28.971-13.021-50.989c22.5-14,43-24.5,47.5-30.5c3-9.5,0-54,9.5-60.5s53-16,52-31.5c0.5-16-0.5-19,6-27   s19.5-23,31.5-23.5s25.13,4.5,30.07,2c4.93-2.5,9.693-2.04,9.693-2.04c0.24,1.399,0.887,2.939,2.08,4.645c7-1,9-1,15-6   c7,2.5,10.5,3.5,14,0C583.344,462.318,589.844,461.818,598.844,455.318z"/>
	<path id="path376" fill="#89BB54" d="M360,467.719c-1,6,16.5,8,15.5,27s-18,27.5-24.069,31c-5.064,0-7.431,19.5-13.931,26   c-5,8.5-29,22.5-37,27c-0.5,13,4.5,13,9.5,14c4,0,12,1,14.5,4c0.5,26.5,2,40,7,65.5c0.811,5.479,1.9,10.54,3.24,15.21   c-4.29,0.16-10.38-1.146-16.3-4.931c-2.021-1.289-4.03-2.869-5.94-4.779c-2-9.5-8.5-19-14.5-22.5   c-2.79-0.76-9.188-5.771-15.729-12.75c-6.354-6.76-12.82-15.38-16.271-23.75c-7-17-5-22-2.5-26s25-22.5,31-28s4-10,5.971-17.5   c3.96-4,15.529-12.5,19.529-14s33-24,35-34c-5-6.5-10.5-2.5-12.5,0s-11.5,4.5-14.5,3s-1-19,0-26c-4-1.5,0,0-8-6.565   c-0.5-8.569-7-11.435-10-13.935c-2.899-2.42-3.85-5.688-3.91-5.896c0-0.015,0-0.015,0-0.015c1.45-1.365,3.062-2.42,4.91-2.896   c6.5-1.689,17.32,1.311,25.16,8.311S360,467.719,360,467.719z"/>
	<path id="path396" fill="#AE955F" d="M630.344,466.318c0,7.5,2.5,8,2.5,13s-3,8-3,11s-2,3-2,10s2.5,6.5,2.5,15.5s-7,12-7.5,20.5   c4.5,8.5,4.5,8.5,4.5,8.5l-56.864,1.5c0,0,1.021-26.83,20.021-48.71c19-22.395,23.19-27.688,23.85-41.29c3,2.5,8.5,2.5,8.5,2.5   c4-4.5,3.5-9,7.5-4.5C629.844,462.318,627.844,460.818,630.344,466.318z"/>
	<path id="path416" fill="#AE955F" d="M551.844,430.818c-2,7,1.5,13.5,0,17c-1.193,2.801-6.56,6.235-5.58,11.855   c0,0-4.77-0.46-9.693,2.04c-4.94,2.5-18.07-2.5-30.07-2s-25,15.5-31.5,23.5s-5.5,11-6,27c1,15.5-42.5,25-52,31.5s-6.5,51-9.5,60.5   c-4.5,6-25,16.5-47.5,30.5c-21.06,22.021,1.41,32.58,13.021,50.989l-0.011,0.011c-5.979-5-16.51-12-18.01-8.5s-3.5,6,0,13.685   c5.5,5.181,3.5,5.315,3,11.445c2.5,6.145,3.5,8.87,7.54,10.87c4.04,2.013,6.97,0,6.97,0c-2.909,6.78-6.97,9.71-6.97,9.71   c-12.78-8.22-24.51-21.561-30.8-43.5c-1.34-4.67-2.436-9.729-3.24-15.21c-5-25.5-6.5-39-7-65.5c-2.5-3-10.5-4-14.5-4   c-5-1-10-1-9.5-14c8-4.5,32-18.5,37-27c6.5-6.5,8.86-26,13.931-26c6.069-3.5,23.069-12,24.069-31s-16.5-21-15.5-27c0,0,5.5-1.5,9-6   s9-18.5,16-18s27.5-3.896,30-4.95c2.5-1.05,10-11.05,9.5-23.55c-6.5-10.5-15-10-13.5-28.5c-0.5-9-3-14-11.5-17.5   s-17.5-3.3-21.5-7.15c-5,2.15-15-2.35-15-2.35c-2.5-9-13.42-34.04-13.42-34.04c0.67-0.13,1.399-0.25,2.2-0.36   c7.064,1.5,4.854,1.5,8.96-4c3.104,0,17.104,2.5,18.604,1.5s2.5-6.5,7-5.5c6,1,4.186,5.5,4.186,5.5l27.76-0.5   c0,0,2.56,0.5,2.56-18.5c4-1,4.5-1.5,5-5s-0.5-4.5,0-8s3-6,2.5-11.5c4.5,0,32.5,0.5,32.5,0.5l3.5-2.85h14c0,0,1.5,3.85,0,6.85   c-1.5,4.5-1.5,4.5-1.5,4.5l50.847,1.5c0,0,4.653,1.5,4.653,8.5c4.5,6,5,5,3,9s-4.5,4.5-4.5,10s6.73,14.5,5.61,26.5   c-2.61,6.5-4.61,12-4.61,18.5s1,13,0.5,16.5s1.48,21.5,4.24,25c5.76,3,5.26-1,11.76,6   C548.344,419.818,551.844,430.818,551.844,430.818z"/>
	<path id="path436" fill="#DDD4B3" d="M136.85,409.818c0.22-6.791-1.75-8.75-5.25-10.75c1-16.5-3.28-15.979-6.75-23.75   c0.188-5.791,7.06-1.711,7.25-7.25c5-9.25,10.05-4.18,10.25-10c0.13-4.09-4.104-7.85-4-11.75c0,0,15.146-20.64,19.146-22.6   c8-2.221,25.5,11.5,34,8.5c2-8,0.5-18.5,6-18.5c9,4,18.5,7,24,6.5c5.5-3.5,8-8,15-13c8.5-1,12-2,14,0c0,7.5-4,11-2.5,12.5   s7,6,11.5,2s18-21,23.5-22.5s23.061,1.439,31.03-2.53c2.315,2.38,3.815,4.13,3.815,5.13c0,2,2,6.5,2.5,6.5c1,0,7,3,11.5,10.5   c3.29,6.58,3,9.42,4.312,10.07c0,0,1.84,26.33,2.84,28.33c7,3.5,20.5,7.5,24,2.5c0,0,10,4.5,15,2.35c4,3.851,13,3.65,21.5,7.15   s11,8.5,11.5,17.5c-1.5,18.5,7,18,13.5,28.5c0.5,12.5-7,22.5-9.5,23.55c-2.5,1.055-23,5.45-30,4.95s-12.5,13.5-16,18s-9,6-9,6   s-16-15.5-23.84-22.5s-18.66-10-25.16-8.311c-1.852,0.479-3.46,1.524-4.91,2.896c0,0,0,0,0,0.015   c-3.63,3.438-6.229,8.971-9.09,12.896c-4,5.5-26.5,9.5-38,9.5c-7,4-27,0.5-41.5-3c-12-8-9-17.5-9-30c-3-6-6-6-18.5-8.5   C175,414.719,136.85,409.818,136.85,409.818z"/>
	<path id="path456" fill="#F8F6E4" d="M363,359.719c-3.5,5-17,1-24-2.5c-1-2-2.84-28.33-2.84-28.33c0.479,0.25,1.17,0.2,2.34-0.07   c3.86-0.89,5.76-2.17,11.08-3.14C349.58,325.679,360.5,350.719,363,359.719z"/>
	<path id="path476" fill="#F8F6E4" d="M157.5,323.719c-4,1.96-19.146,22.6-19.146,22.6c0.25-10-1.25-13.25-10.5-21.75   c-0.5-11.5-4.57-14.5-11-23.5c-2.5-23-6.5-28.25-14.5-32.25c-2.096-7.75-2.096-15-11.75-23.25c0.5-3.75,0.25-7.75,0.25-7.75h12.5   c0,0,3.5-4,8-4.5s9-3.5,14.5-3s3.5-0.609,10-0.06c6.5,0.56,11,2.06,19.5-2.44c8.5,2.5,6.5,2.5,11,2.5c4.5-1.5,3.5-6.159,8-5.33   c4.5,0.83,3.5,5.9,7.5,6.37c4,0.46,109.5-2.04,109.5-2.04s-1.5,4.5,0,8.5c3,4,7.495,4,7.495,7c0,4.5-2.995,8-2.995,10   c0,3,2.495,4,2.995,12c6,5.5,6,8,6.5,11c3,3,2,3,0,10c3.25,3.5,6.359,6.49,8.685,8.87c-7.975,3.97-25.53,1.03-31.03,2.53   s-19,18.5-23.5,22.5s-10-0.5-11.5-2s2.5-5,2.5-12.5c-2-2-5.5-1-14,0c-7,5-9.5,9.5-15,13c-5.5,0.5-15-2.5-24-6.5   c-5.5,0-4,10.5-6,18.5C183,335.219,165.5,321.498,157.5,323.719z"/>
	<path id="path496" fill="#F8F6E4" d="M123.37,170.009c0.7,5.84-4.88,8.09-9.06,8.09c-1.396,2.79-2.09,9.75-6.266,9.061l-3.484,7.01   h-2.78v26.71c0,0-9.06,5.29-15.33,3.979c-6.27-1.31-4.18,1.311-3.479-3.979c0.694-5.29,4.18-4.47,4.18-7.53   c0-3.05-4.88-11.56-9.75-19.18c1.39-5.53,4.87-5.62,8.35-11.521c4.186-5.899,3.49,0.33,6.271,0c2.79-0.319,1.396-6.64,4.18-12.64   c2.79-3.22,4.88,1.82,10.45,0c1.396-8.09,3.479-9.32,5.95-8.61c2.47,0.721,0,4.86,0,4.86S118.49,165.559,123.37,170.009z"/>
	<g id="g512">
		<g id="g514">
			<g id="g516">
				<path id="path518" fill="none" stroke="#000000" d="M223.83,743.068c-29.88-0.145-52.646-0.25-53.979-0.25      c-5.5-4-7.5-4.5-9.5-6.5s-3.5,0-7.5-2s-2-7.5-4-8.5s-3.5,1.5-8-0.5s-7.5-4-15.5-1.5s-4.5,9.5-12,12.5s-12-2-12-2s0.5,2.5-6,2      s-5-3.5-10-4s-8,4.5-11.5,4.5s-3.45-1.845-1.95-11.345c0.229-1.43,1.45-8.325,5.45-17c2.55-5.524-6.42-9.655-3.67-24.655      c-0.79-4.595-5.83-4-2.58-8.5c5.5-2.5,10.75-3.25,13.75-28c2.25-2.25,4-8,3.75-14.25c5.25-7,8.75-19,9-40.25      c0.024-2.71,2.604-4.595,7.25-12c0.404-2.449,0.76-4.67,1.104-6.688c1.79-10.396,3.44-15.67,11.396-20.062      c4.5-7.5,6.654-7.279,6.75-9.75c0.229-6.729,2.75-6.25,8.12-14.015c4.88,0.015,6.38-0.735,11.13-1.985      c5.25-5.75,6.25-8.555,6.5-15.75c8.75-1,5.75-10.75,12.25-18c-1.75-5.5,0.188-22.312,1-28.25c1.25-9.25-5.75-12.75-5-25      c-6-2.75-8.25-5.5-11.75-13c0.31-9.449-1-13-9.5-18.5c0.22-6.791-1.75-8.75-5.25-10.75c1-16.5-3.28-15.979-6.75-23.75      c0.188-5.791,7.06-1.711,7.25-7.25c5-9.25,10.05-4.18,10.25-10c0.13-4.09-4.104-7.85-4-11.75c0.25-10-1.25-13.25-10.5-21.75      c-0.5-11.5-4.57-14.5-11-23.5c-2.5-23-6.5-28.25-14.5-32.25c-2.096-7.75-2.096-15-11.75-23.25c0.5-3.75,0.25-7.75,0.25-7.75      h12.5c0,0,3.5-4,8-4.5s9-3.5,14.5-3s3.5-0.609,10-0.06c6.5,0.56,11,2.06,19.5-2.44c8.5,2.5,6.5,2.5,11,2.5      c4.5-1.5,3.5-6.159,8-5.33c4.5,0.83,3.5,5.9,7.5,6.37c4,0.46,109.5-2.04,109.5-2.04s-1.5,4.5,0,8.5c3,4,7.495,4,7.495,7      c0,4.5-2.995,8-2.995,10c0,3,2.495,4,2.995,12c6,5.5,6,8,6.5,11c3,3,2,3,0,10c3.25,3.5,6.359,6.49,8.685,8.87      c2.316,2.38,3.815,4.13,3.815,5.13c0,2,2,6.5,2.5,6.5c1,0,7,3,11.5,10.5c3.29,6.58,3,9.42,4.312,10.07      c0.479,0.25,1.17,0.2,2.34-0.07c3.86-0.89,5.761-2.17,11.08-3.14c0.67-0.13,1.399-0.25,2.2-0.36c7.064,1.5,4.854,1.5,8.96-4      c3.104,0,17.104,2.5,18.604,1.5s2.5-6.5,7-5.5c6,1,4.186,5.5,4.186,5.5l27.76-0.5c0,0,2.56,0.5,2.56-18.5c4-1,4.5-1.5,5-5      s-0.5-4.5,0-8s3-6,2.5-11.5c4.5,0,32.5,0.5,32.5,0.5l3.5-2.85h14c0,0,1.5,3.85,0,6.85c-1.5,4.5-1.5,4.5-1.5,4.5l50.847,1.5      c0,0,4.653,1.5,4.653,8.5c4.5,6,5,5,3,9s-4.5,4.5-4.5,10s6.73,14.5,5.61,26.5c-2.61,6.5-4.61,12-4.61,18.5s1,13,0.5,16.5      s1.48,21.5,4.24,25c5.76,3,5.26-1,11.76,6c0,10,3.5,21,3.5,21c-2,7,1.5,13.5,0,17c-1.193,2.801-6.56,6.235-5.574,11.855      c0.234,1.399,0.881,2.939,2.074,4.645c7-1,9-1,15-6c7,2.5,10.5,3.5,14,0c6,4,12.5,3.5,21.5-3c10.5,2.5,13.5,3,15.5,1      c3,2.5,8.5,2.5,8.5,2.5c4-4.5,3.5-9,7.5-4.5c-0.5,8-2.5,6.5,0,12c0,7.5,2.5,8,2.5,13s-3,8-3,11s-2,3-2,10s2.5,6.5,2.5,15.5      s-7,12-7.5,20.5c4.5,8.5,4.5,8.5,4.5,8.5l-56.863,1.5l-38.137,1l0.5,142.5c0,0,1.86,2.479,3.727,6.646      c1.023,2.312,2.063,5.145,2.773,8.354c8,8,11,8.5,15,11.5c1,6.5,1,6.5,1,6.5s5,1.5,10,6.5s13,9.5,14,12.5c9,3,12.5,7.5,14.5,11      c-12,3-82,17.5-82,17.5c-4.693-2.688-8.5-5.369-12.46-6.699c-1.938-0.641-3.903-0.96-6.04-0.801      c-0.13,0.051-0.25,0.102-0.38,0.146c-8.68,3.354-10.72,3.41-17.62,7.354c-7.5-6.5-3-10.5-24.5-9.5      c-11.27,0.521-17.036,0.771-20.85,0.896c-3.46,0.104-5.29,0.104-8.15,0.104c-6,0-9.5-2-9.5-2s-4.5,1-16.496,0      c-11-5.5-9-2.5-13.5-5.5s-9-10.5-9-10.5s-77.05-0.395-136.354-0.685C232.49,743.118,228.09,743.099,223.83,743.068z"/>
				<path id="path520" fill="none" stroke="#000000" d="M138.35,346.319c0,0,15.146-20.64,19.146-22.6c8-2.221,25.5,11.5,34,8.5      c2-8,0.5-18.5,6-18.5c9,4,18.5,7,24,6.5c5.5-3.5,8-8,15-13c8.5-1,12-2,14,0c0,7.5-4,11-2.5,12.5s7,6,11.5,2s18-21,23.5-22.5      s23.061,1.439,31.03-2.53"/>
				<path id="path522" fill="none" stroke="#000000" d="M336.16,328.889c0,0,1.84,26.33,2.84,28.33c7,3.5,20.5,7.5,24,2.5      c-2.5-9-13.42-34.04-13.42-34.04"/>
				<path id="path524" fill="none" stroke="#000000" stroke-width="2" d="M101.78,220.879v-26.71h2.78l3.484-7.01      c4.176,0.689,4.87-6.271,6.266-9.061c4.18,0,9.76-2.25,9.06-8.09c-4.88-4.45-10.77-3.75-10.77-3.75s2.47-4.14,0-4.86      c-2.476-0.71-4.556,0.521-5.95,8.61c-5.57,1.82-7.66-3.22-10.45,0c-2.78,6-1.39,12.32-4.18,12.64c-2.78,0.33-2.09-5.899-6.271,0      c-3.479,5.9-6.96,5.99-8.35,11.521c4.87,7.62,9.75,16.13,9.75,19.18c0,3.061-3.48,2.24-4.185,7.53      c-0.695,5.29-2.785,2.67,3.479,3.979C92.72,226.169,101.78,220.879,101.78,220.879z"/>
				<path id="path526" fill="none" stroke="#000000" d="M306.09,439.809c1.45-1.365,3.062-2.42,4.91-2.896      c6.5-1.689,17.32,1.311,25.16,8.311s23.84,22.5,23.84,22.5s5.5-1.5,9-6s9-18.5,16-18s27.5-3.896,30-4.945      c2.5-1.055,10-11.055,9.5-23.554c-6.5-10.5-15-10-13.5-28.5c-0.5-9-3-14-11.5-17.5s-17.5-3.301-21.5-7.151      c-5,2.15-15-2.35-15-2.35"/>
				<path id="path528" fill="none" stroke="#000000" d="M136.85,409.818c0,0,38.146,4.896,53.146,10.896c12.5,2.5,15.5,2.5,18.5,8.5      c0,12.5-3,22,9,30c14.5,3.5,34.5,7,41.5,3c11.5,0,34-4,38-9.5c2.86-3.931,5.46-9.46,9.09-12.896"/>
				<path id="path530" fill="none" stroke="#000000" d="M570.48,546.318c0,0,1.02-26.83,20.02-48.71      c19-22.395,23.19-27.688,23.85-41.29"/>
				<path id="path532" fill="none" stroke="#000000" d="M430,761.709c0,0,2.71-9.761-3.25-18.301      c-2.13-3.051-5.38-5.949-10.25-8.189c-8.44-1.13-30.99-1.46-50.96-14.29c-12.78-8.22-24.51-21.561-30.8-43.5      c-1.34-4.67-2.436-9.729-3.24-15.21c-5-25.5-6.5-39-7-65.5c-2.5-3-10.5-4-14.5-4c-5-1-10-1-9.5-14c8-4.5,32-18.5,37-27      c6.5-6.5,8.86-26,13.931-26c6.069-3.5,23.069-12,24.069-31s-16.5-21-15.5-27"/>
				<path id="path534" fill="none" stroke="#000000" d="M426.73,743.408c0,0,0.01,0,0.02,0c0.75-0.149,21.77-4.221,22.75-5.689      c1-1.5,12-13,16-13.5s19.5,1,23.5,0s16-9.5,19.5-12s25.13-15.5,28.07-15.75"/>
				<path id="path536" fill="none" stroke="#000000" d="M365.54,720.929c0,0,4.061-2.931,6.97-9.71c2.4-5.565,4.021-13.729,1.99-25      c-0.47-0.851-0.96-1.688-1.479-2.51c-11.609-18.41-34.079-28.972-13.021-50.99c22.5-14,43-24.5,47.5-30.5c3-9.5,0-54,9.5-60.5      s53-16,52-31.5c0.5-16-0.5-19,6-27s19.5-23,31.5-23.5s25.13,4.5,30.07,2c4.93-2.5,9.693-2.04,9.693-2.04"/>
				<path id="path538" fill="none" stroke="#000000" d="M306.09,439.809c0,0,0,0,0,0.015c0.062,0.21,1.011,3.479,3.91,5.896      c3,2.5,9.5,5.359,10,13.935c8,6.565,4,5.065,8,6.565c-1,7-3,24.5,0,26s12.5-0.5,14.5-3s7.5-6.5,12.5,0c-2,10-31,32.5-35,34      s-15.569,10-19.529,14c-1.971,7.5,0.029,12-5.971,17.5s-28.5,24-31,28s-4.5,9,2.5,26c3.45,8.37,9.92,16.99,16.271,23.75      c6.54,6.979,12.938,11.99,15.729,12.75c6,3.5,12.5,13,14.5,22.5c1.91,1.91,3.92,3.49,5.94,4.779      c5.92,3.779,12.01,5.091,16.3,4.931"/>
				<path id="path540" fill="none" stroke="#000000" d="M318.44,672.498c0,0-8.94,11.221-13.44,11.221l-4.529-3      c0,0-8.971-2.55-10.471-3.275c-1.5-0.725-9.31,6.275-9.31,6.275s8.81,2.5,8.81,8c-9.5,3.5-37.5,9.5-40,14      s-6.01,15.84-12.5,37.42"/>
				<path id="path542" fill="none" stroke="#000000" d="M289.5,691.719c0,0,7.75,8.939,13,0c2.5-8,2.5-1,2.5-8"/>
				<path id="path544" fill="none" stroke="#000000" d="M162.96,587.328c4.45,1.71,8.46,6.311,13.54,5.891c6-0.5,29-14,33.5-13      c3.94,0.88,7.49,4.812,11,5.779c0.5,0.141,1,0.221,1.5,0.221c4,0,27.5,0.935,30.5-2.525c4.5,3.025,4.5,9.076,2,9.561      c-2.5,0.471-13.5,3.521-27.5,0c-0.5,10.471-5,13.971,24.5,28.971c17.5,9,25.54,14.5,30.271,10.25"/>
				<path id="path546" fill="none" stroke="#000000" d="M105.96,574.129c0,0,23.73,8.09,30.896,12.59      c10.646,0.5,18.146-0.5,23.646,0c0.84,0.08,1.66,0.29,2.46,0.604"/>
				<path id="path548" fill="none" stroke="#000000" d="M227.5,593.248c0,0-9.5,1.971-13,3.471c-2-5.5-2-7.931,6.5-10.721"/>
				<path id="path550" fill="none" stroke="#000000" d="M162.96,587.318v0.011c-0.1,0.396-1.984,8.479,0,11.891      c2.04,3.5,8.04,10.99,6.54,15.5c-1.5,4.5-9,16.42-12,19.21s-8,15.34,15,38.569c23,23.221,36,18.721,43,23.971      c4.5,10.25,5.91,27.25,4.95,33.25c0.47,6.859,2.74,12.021,3.38,13.354c0.11,0.221,0.17,0.341,0.17,0.341"/>
				<path id="path552" fill="none" stroke="#000000" d="M118.5,689.709c0,0-6-5.54-6-12.271c0-6.72,1-25.72,3-38.72      s5.5-28.38,5.5-34.688c3.5-6.312,5-14.812,13.5-7.312c3,3,6.5,9.5,0,20c-7,8.5-7.5,26-7,29s4,16.79,5,19.645      c-2,7.355-4.314,15.855-7.16,18.355C122.5,686.219,118.5,689.709,118.5,689.709z"/>
				<path id="path554" fill="none" stroke="#000000" d="M194.11,653.719c0,0,18.89-7.45,21.39-11.971      c-6-7.029-5.89-8.609-10.688-7.819c-4.812,0.79-6.812,10.79-13.312,14.79C190.5,652.219,187.73,651.719,194.11,653.719z"/>
				<path id="path556" fill="none" stroke="#000000" d="M230,699.219c0,0,11.5,5.975,14-9.51c6-2.49,9.5-6.54,7.5-12.271      c-4,0.78-7.51,1.78-14.5,8.78C230,693.219,230.5,692.219,230,699.219z"/>
				<path id="path558" fill="none" stroke="#000000" d="M372.51,711.219c0,0-2.93,2.01-6.97,0c-4.04-2-5.04-4.729-7.54-10.87      c0.5-6.13,2.5-6.271-3-11.445c-3.5-7.685-1.5-10.185,0-13.685s12.03,3.5,18.01,8.5"/>
				<path id="path560" fill="none" stroke="#000000" d="M333,726.719c0,0-15,8-28,5.5s-12.064-12.5-4.529-16.5      c8.529-1.5,11.909,0,17.975,0c6.06,0,11.06-4.21,14.56-3.605c4,3.105,7.5,6.525,7.5,8.815S335.385,725.578,333,726.719z"/>
				<path id="path562" fill="none" stroke="#000000" d="M492.969,762.969c3.62,0.42,6.41,0.66,6.41,0.66s0,0,0.01-0.011      c0.477-0.104,14.977-3.529,21.11,0.011c8-1.91,16.5-2.91,19-7.91c3.5-1.5,3.5-1.5,3.5-1.5s-1.37-6-6.43-6      c-5.07,0-10.19,2-15.38,2c-5.19,0-9.19-1.5-12.69-2s-20,5-23,5.5s-8.5,3-8.5,5.5C477,760.839,486.36,762.209,492.969,762.969z"/>
			</g>
		</g>
		<defs>
			<filter id="Adobe_OpacityMaskFilter" filterUnits="userSpaceOnUse" x="69.521" y="160.226" width="563.828" height="610.703">
				<feColorMatrix type="matrix" values="1 0 0 0 0  0 1 0 0 0  0 0 1 0 0  0 0 0 1 0"/>
			</filter>
		</defs>
		<mask maskUnits="userSpaceOnUse" x="69.521" y="160.226" width="563.828" height="610.703" id="SVGID_22_">
			<g id="g570" filter="url(#Adobe_OpacityMaskFilter)">
			</g>
		</mask>
		<g id="g574" opacity="0.1" mask="url(#SVGID_22_)">
			<g id="g576">
				<path id="path578" fill="none" stroke="#2B2C30" d="M223.83,743.068c-29.88-0.145-52.646-0.25-53.979-0.25      c-5.5-4-7.5-4.5-9.5-6.5s-3.5,0-7.5-2s-2-7.5-4-8.5s-3.5,1.5-8-0.5s-7.5-4-15.5-1.5s-4.5,9.5-12,12.5s-12-2-12-2s0.5,2.5-6,2      s-5-3.5-10-4s-8,4.5-11.5,4.5s-3.45-1.845-1.95-11.345c0.229-1.43,1.45-8.325,5.45-17c2.55-5.524-6.42-9.655-3.67-24.655      c-0.79-4.595-5.83-4-2.58-8.5c5.5-2.5,10.75-3.25,13.75-28c2.25-2.25,4-8,3.75-14.25c5.25-7,8.75-19,9-40.25      c0.024-2.71,2.604-4.595,7.25-12c0.404-2.449,0.76-4.67,1.104-6.688c1.79-10.396,3.44-15.67,11.396-20.062      c4.5-7.5,6.654-7.279,6.75-9.75c0.229-6.729,2.75-6.25,8.12-14.015c4.88,0.015,6.38-0.735,11.13-1.985      c5.25-5.75,6.25-8.555,6.5-15.75c8.75-1,5.75-10.75,12.25-18c-1.75-5.5,0.188-22.312,1-28.25c1.25-9.25-5.75-12.75-5-25      c-6-2.75-8.25-5.5-11.75-13c0.31-9.449-1-13-9.5-18.5c0.22-6.791-1.75-8.75-5.25-10.75c1-16.5-3.28-15.979-6.75-23.75      c0.188-5.791,7.06-1.711,7.25-7.25c5-9.25,10.05-4.18,10.25-10c0.13-4.09-4.104-7.85-4-11.75c0.25-10-1.25-13.25-10.5-21.75      c-0.5-11.5-4.57-14.5-11-23.5c-2.5-23-6.5-28.25-14.5-32.25c-2.096-7.75-2.096-15-11.75-23.25c0.5-3.75,0.25-7.75,0.25-7.75      h12.5c0,0,3.5-4,8-4.5s9-3.5,14.5-3s3.5-0.609,10-0.06c6.5,0.56,11,2.06,19.5-2.44c8.5,2.5,6.5,2.5,11,2.5      c4.5-1.5,3.5-6.159,8-5.33c4.5,0.83,3.5,5.9,7.5,6.37c4,0.46,109.5-2.04,109.5-2.04s-1.5,4.5,0,8.5c3,4,7.495,4,7.495,7      c0,4.5-2.995,8-2.995,10c0,3,2.495,4,2.995,12c6,5.5,6,8,6.5,11c3,3,2,3,0,10c3.25,3.5,6.359,6.49,8.685,8.87      c2.316,2.38,3.815,4.13,3.815,5.13c0,2,2,6.5,2.5,6.5c1,0,7,3,11.5,10.5c3.29,6.58,3,9.42,4.312,10.07      c0.479,0.25,1.17,0.2,2.34-0.07c3.86-0.89,5.761-2.17,11.08-3.14c0.67-0.13,1.399-0.25,2.2-0.36c7.064,1.5,4.854,1.5,8.96-4      c3.104,0,17.104,2.5,18.604,1.5s2.5-6.5,7-5.5c6,1,4.186,5.5,4.186,5.5l27.76-0.5c0,0,2.56,0.5,2.56-18.5c4-1,4.5-1.5,5-5      s-0.5-4.5,0-8s3-6,2.5-11.5c4.5,0,32.5,0.5,32.5,0.5l3.5-2.85h14c0,0,1.5,3.85,0,6.85c-1.5,4.5-1.5,4.5-1.5,4.5l50.847,1.5      c0,0,4.653,1.5,4.653,8.5c4.5,6,5,5,3,9s-4.5,4.5-4.5,10s6.73,14.5,5.61,26.5c-2.61,6.5-4.61,12-4.61,18.5s1,13,0.5,16.5      s1.48,21.5,4.24,25c5.76,3,5.26-1,11.76,6c0,10,3.5,21,3.5,21c-2,7,1.5,13.5,0,17c-1.193,2.801-6.56,6.235-5.574,11.855      c0.234,1.399,0.881,2.939,2.074,4.645c7-1,9-1,15-6c7,2.5,10.5,3.5,14,0c6,4,12.5,3.5,21.5-3c10.5,2.5,13.5,3,15.5,1      c3,2.5,8.5,2.5,8.5,2.5c4-4.5,3.5-9,7.5-4.5c-0.5,8-2.5,6.5,0,12c0,7.5,2.5,8,2.5,13s-3,8-3,11s-2,3-2,10s2.5,6.5,2.5,15.5      s-7,12-7.5,20.5c4.5,8.5,4.5,8.5,4.5,8.5l-56.863,1.5l-38.137,1l0.5,142.5c0,0,1.86,2.479,3.727,6.646      c1.023,2.312,2.063,5.145,2.773,8.354c8,8,11,8.5,15,11.5c1,6.5,1,6.5,1,6.5s5,1.5,10,6.5s13,9.5,14,12.5c9,3,12.5,7.5,14.5,11      c-12,3-82,17.5-82,17.5c-4.693-2.688-8.5-5.369-12.46-6.699c-1.938-0.641-3.903-0.96-6.04-0.801      c-0.13,0.051-0.25,0.102-0.38,0.146c-8.68,3.354-10.72,3.41-17.62,7.354c-7.5-6.5-3-10.5-24.5-9.5      c-11.27,0.521-17.036,0.771-20.85,0.896c-3.46,0.104-5.29,0.104-8.15,0.104c-6,0-9.5-2-9.5-2s-4.5,1-16.496,0      c-11-5.5-9-2.5-13.5-5.5s-9-10.5-9-10.5s-77.05-0.395-136.354-0.685C232.49,743.118,228.09,743.099,223.83,743.068z"/>
				<path id="path580" fill="none" stroke="#2B2C30" d="M138.35,346.319c0,0,15.146-20.64,19.146-22.6c8-2.221,25.5,11.5,34,8.5      c2-8,0.5-18.5,6-18.5c9,4,18.5,7,24,6.5c5.5-3.5,8-8,15-13c8.5-1,12-2,14,0c0,7.5-4,11-2.5,12.5s7,6,11.5,2s18-21,23.5-22.5      s23.061,1.439,31.03-2.53"/>
				<path id="path582" fill="none" stroke="#2B2C30" d="M336.16,328.889c0,0,1.84,26.33,2.84,28.33c7,3.5,20.5,7.5,24,2.5      c-2.5-9-13.42-34.04-13.42-34.04"/>
				<path id="path584" fill="none" stroke="#2B2C30" stroke-width="2" d="M101.78,220.879v-26.71h2.78l3.484-7.01      c4.176,0.689,4.87-6.271,6.266-9.061c4.18,0,9.76-2.25,9.06-8.09c-4.88-4.45-10.77-3.75-10.77-3.75s2.47-4.14,0-4.86      c-2.476-0.71-4.556,0.521-5.95,8.61c-5.57,1.82-7.66-3.22-10.45,0c-2.78,6-1.39,12.32-4.18,12.64c-2.78,0.33-2.09-5.899-6.271,0      c-3.479,5.9-6.96,5.99-8.35,11.521c4.87,7.62,9.75,16.13,9.75,19.18c0,3.061-3.48,2.24-4.185,7.53      c-0.695,5.29-2.785,2.67,3.479,3.979C92.72,226.169,101.78,220.879,101.78,220.879z"/>
				<path id="path586" fill="none" stroke="#2B2C30" d="M306.09,439.809c1.45-1.365,3.062-2.42,4.91-2.896      c6.5-1.689,17.32,1.311,25.16,8.311s23.84,22.5,23.84,22.5s5.5-1.5,9-6s9-18.5,16-18s27.5-3.896,30-4.945      c2.5-1.055,10-11.055,9.5-23.554c-6.5-10.5-15-10-13.5-28.5c-0.5-9-3-14-11.5-17.5s-17.5-3.301-21.5-7.151      c-5,2.15-15-2.35-15-2.35"/>
				<path id="path588" fill="none" stroke="#2B2C30" d="M136.85,409.818c0,0,38.146,4.896,53.146,10.896c12.5,2.5,15.5,2.5,18.5,8.5      c0,12.5-3,22,9,30c14.5,3.5,34.5,7,41.5,3c11.5,0,34-4,38-9.5c2.86-3.931,5.46-9.46,9.09-12.896"/>
				<path id="path590" fill="none" stroke="#2B2C30" d="M570.48,546.318c0,0,1.02-26.83,20.02-48.71      c19-22.395,23.19-27.688,23.85-41.29"/>
				<path id="path592" fill="none" stroke="#2B2C30" d="M430,761.709c0,0,2.71-9.761-3.25-18.301      c-2.13-3.051-5.38-5.949-10.25-8.189c-8.44-1.13-30.99-1.46-50.96-14.29c-12.78-8.22-24.51-21.561-30.8-43.5      c-1.34-4.67-2.436-9.729-3.24-15.21c-5-25.5-6.5-39-7-65.5c-2.5-3-10.5-4-14.5-4c-5-1-10-1-9.5-14c8-4.5,32-18.5,37-27      c6.5-6.5,8.86-26,13.931-26c6.069-3.5,23.069-12,24.069-31s-16.5-21-15.5-27"/>
				<path id="path594" fill="none" stroke="#2B2C30" d="M426.73,743.408c0,0,0.01,0,0.02,0c0.75-0.149,21.77-4.221,22.75-5.689      c1-1.5,12-13,16-13.5s19.5,1,23.5,0s16-9.5,19.5-12s25.13-15.5,28.07-15.75"/>
				<path id="path596" fill="none" stroke="#2B2C30" d="M365.54,720.929c0,0,4.061-2.931,6.97-9.71c2.4-5.565,4.021-13.729,1.99-25      c-0.47-0.851-0.96-1.688-1.479-2.51c-11.609-18.41-34.079-28.972-13.021-50.99c22.5-14,43-24.5,47.5-30.5c3-9.5,0-54,9.5-60.5      s53-16,52-31.5c0.5-16-0.5-19,6-27s19.5-23,31.5-23.5s25.13,4.5,30.07,2c4.93-2.5,9.693-2.04,9.693-2.04"/>
				<path id="path598" fill="none" stroke="#2B2C30" d="M306.09,439.809c0,0,0,0,0,0.015c0.062,0.21,1.011,3.479,3.91,5.896      c3,2.5,9.5,5.359,10,13.935c8,6.565,4,5.065,8,6.565c-1,7-3,24.5,0,26s12.5-0.5,14.5-3s7.5-6.5,12.5,0c-2,10-31,32.5-35,34      s-15.569,10-19.529,14c-1.971,7.5,0.029,12-5.971,17.5s-28.5,24-31,28s-4.5,9,2.5,26c3.45,8.37,9.92,16.99,16.271,23.75      c6.54,6.979,12.938,11.99,15.729,12.75c6,3.5,12.5,13,14.5,22.5c1.91,1.91,3.92,3.49,5.94,4.779      c5.92,3.779,12.01,5.091,16.3,4.931"/>
				<path id="path600" fill="none" stroke="#2B2C30" d="M318.44,672.498c0,0-8.94,11.221-13.44,11.221l-4.529-3      c0,0-8.971-2.55-10.471-3.275c-1.5-0.725-9.31,6.275-9.31,6.275s8.81,2.5,8.81,8c-9.5,3.5-37.5,9.5-40,14      s-6.01,15.84-12.5,37.42"/>
				<path id="path602" fill="none" stroke="#2B2C30" d="M289.5,691.719c0,0,7.75,8.939,13,0c2.5-8,2.5-1,2.5-8"/>
				<path id="path604" fill="none" stroke="#2B2C30" d="M162.96,587.328c4.45,1.71,8.46,6.311,13.54,5.891c6-0.5,29-14,33.5-13      c3.94,0.88,7.49,4.812,11,5.779c0.5,0.141,1,0.221,1.5,0.221c4,0,27.5,0.935,30.5-2.525c4.5,3.025,4.5,9.076,2,9.561      c-2.5,0.471-13.5,3.521-27.5,0c-0.5,10.471-5,13.971,24.5,28.971c17.5,9,25.54,14.5,30.271,10.25"/>
				<path id="path606" fill="none" stroke="#2B2C30" d="M105.96,574.129c0,0,23.73,8.09,30.896,12.59      c10.646,0.5,18.146-0.5,23.646,0c0.84,0.08,1.66,0.29,2.46,0.604"/>
				<path id="path608" fill="none" stroke="#2B2C30" d="M227.5,593.248c0,0-9.5,1.971-13,3.471c-2-5.5-2-7.931,6.5-10.721"/>
				<path id="path610" fill="none" stroke="#2B2C30" d="M162.96,587.318v0.011c-0.1,0.396-1.984,8.479,0,11.891      c2.04,3.5,8.04,10.99,6.54,15.5c-1.5,4.5-9,16.42-12,19.21s-8,15.34,15,38.569c23,23.221,36,18.721,43,23.971      c4.5,10.25,5.91,27.25,4.95,33.25c0.47,6.859,2.74,12.021,3.38,13.354c0.11,0.221,0.17,0.341,0.17,0.341"/>
				<path id="path612" fill="none" stroke="#2B2C30" d="M118.5,689.709c0,0-6-5.54-6-12.271c0-6.72,1-25.72,3-38.72      s5.5-28.38,5.5-34.688c3.5-6.312,5-14.812,13.5-7.312c3,3,6.5,9.5,0,20c-7,8.5-7.5,26-7,29s4,16.79,5,19.645      c-2,7.355-4.314,15.855-7.16,18.355C122.5,686.219,118.5,689.709,118.5,689.709z"/>
				<path id="path614" fill="none" stroke="#2B2C30" d="M194.11,653.719c0,0,18.89-7.45,21.39-11.971      c-6-7.029-5.89-8.609-10.688-7.819c-4.812,0.79-6.812,10.79-13.312,14.79C190.5,652.219,187.73,651.719,194.11,653.719z"/>
				<path id="path616" fill="none" stroke="#2B2C30" d="M230,699.219c0,0,11.5,5.975,14-9.51c6-2.49,9.5-6.54,7.5-12.271      c-4,0.78-7.51,1.78-14.5,8.78C230,693.219,230.5,692.219,230,699.219z"/>
				<path id="path618" fill="none" stroke="#2B2C30" d="M372.51,711.219c0,0-2.93,2.01-6.97,0c-4.04-2-5.04-4.729-7.54-10.87      c0.5-6.13,2.5-6.271-3-11.445c-3.5-7.685-1.5-10.185,0-13.685s12.03,3.5,18.01,8.5"/>
				<path id="path620" fill="none" stroke="#2B2C30" d="M333,726.719c0,0-15,8-28,5.5s-12.064-12.5-4.529-16.5      c8.529-1.5,11.909,0,17.975,0c6.06,0,11.06-4.21,14.56-3.605c4,3.105,7.5,6.525,7.5,8.815S335.385,725.578,333,726.719z"/>
				<path id="path622" fill="none" stroke="#2B2C30" d="M492.969,762.969c3.62,0.42,6.41,0.66,6.41,0.66s0,0,0.01-0.011      c0.477-0.104,14.977-3.529,21.11,0.011c8-1.91,16.5-2.91,19-7.91c3.5-1.5,3.5-1.5,3.5-1.5s-1.37-6-6.43-6      c-5.07,0-10.19,2-15.38,2c-5.19,0-9.19-1.5-12.69-2s-20,5-23,5.5s-8.5,3-8.5,5.5C477,760.839,486.36,762.209,492.969,762.969z"/>
			</g>
		</g>
	</g>
	<g id="g628">
		<path id="path630" fill="#114684" d="M203.531,403.85c0.041-0.041-1.168-0.039,0.71-0.125c2.95-0.17,5.525-0.603,8.092-1.008    c1.87,0.25,4.812,0.967,7.427,1.658l0.413,0.044c4.261,1.065,8.71,2.906,13.928,2.308c8.484-1.525,17.188-4.188,25.217-3.254    c-0.184-0.074-0.271-0.115,0.452,0.063c3.146,2.182,8.98,0.929,12.681,3.929c0.588,0.401,1.146,0.855,1.672,1.348    c0.432,0.354,0.543,0.449,0.615,0.508c1.604,1.564,2.802,3.229,3.922,4.736c5.27,4.229,8.925,8.836,14.359,12.938    c1.419,0.918,3.074,1.533,4.754,1.772c0.839,0.136,1.674,0.17,2.509,0.188c-1.053-0.998-0.127,1.167-0.283,1.596    c0.542,3.314,2.021,6.454,4.032,9.089c7.719,10.396,17.779,19.864,26.339,30.373c4.979,3.861,6.978,9.104,7.586,14.911    c0.367,8.312,4.035,18.887,1.73,26.928c0.383-0.564-0.938,3.935-1.321,8.271c-0.269,4.322-0.273,8.312-0.086,6.333    c0.122,5.52-2.175,13.534-2.582,13.83c-0.271,1.257-1.723,5.26-7.837,18.354c-3.592,4.883-2.306,13.309-2.53,15.492    c0.062,3.146,0.139-7.346,0.201-4.198c-0.833-5.551,1.726-9.396,4.021-14.421c2.232-4.719,4.521-9.396,6.547-14.232    c4.573-10.189,1.782-20.808,5.205-30.729c0.93-5.277,0.314-10.674-0.712-15.8c-1.104-4.791-0.908-10.328-2.396-15.444    c-0.721-2.533-1.621-5.35-3.938-7.316c-1.222-1.021-2.062-1.348-2.465-2.419c-0.758-1.393-1.604-2.317-2.46-3.372    c-3.447-4.048-7.112-7.824-10.713-11.71c-2.458-2.456-8.479-9.229-14.925-18.369c-0.678-1.213-1.28-2.492-1.646-3.895    c-1.108-1.624,0.812-2.246-1.93-4.943c-3.094,0.061-5.951-1.084-8.383-3.398c-2.465-2.244-4.901-4.86-7.569-7.284    c-1.254-1.146-2.875-2.582-3.94-3.412c-1.096-1.485-2.21-2.978-3.519-4.348c-2.433-2.787-6.142-5.117-9.999-5.337    c-3.597,0.181-6.609-2.499-10.69-2.182c-7.368,0.254-14.167,1.938-20.471,3.188c-6.045,1.505-11.708-1.25-16.646-2.305    c-2.612-0.547-4.513-1.322-7.188-1.269c-2.05,0.354-3.854,0.633-5.379,0.787c-0.733,0.063-1.477,0.166-2.207,0.172    c-6.396,0.402-13.828-2.715-20.908-3.812c-1.69-0.521-3.317-1.156-4.854-1.937c-0.596-0.352-1.709-2.903-3.344-3.77    c-1.767-1.452-4.479-0.086-5.112-0.031c-1.071-0.238-2.578-1.054-3.693-1.771c-2.308-1.431-3.895-2.921-5.385-5.425    c-1.83-2.184-4.021-3.805-6.306-5.301c2.099,1.422,3.883,2.957,5.285,4.467c-3.938-3.982-8.835-6.7-11.047-7.157    c-11.833,0.071-5.104-0.144-0.648,0.226c3.043,1.045-1.008-0.427,3.538,1.635c-3.194-1.715-5.109-1.832-8.712-1.375    c-0.209,0.168,2.604-0.519,5.062-0.021c2.454,0.559,4.371,1.854,3.251,1.27c-3.042-2.074-7.067-1.235-10.684-1.008    c0.619,0.141,3.832-0.438,6.635-0.265c2.854,0.382,5.092,2.009,4.851,1.832c-0.854-0.433-3.065-1.735-5.426-1.87    c-2.312-0.031-4.593,0.355-4.934,0.35c-0.142,0.131,3.537-0.418,5.248-0.271c-11.199,0.438-16.903,1.567-7.076,0.627    c-3.51-0.283-8.492,1.046-10.423,4.21l0.015-0.02c0.89-1.485,3.59-3.205,5.182-3.592c-1.902,0.612-3.701,1.733-4.935,3.295    c0.191-0.24,0.453-0.483,0.727-0.742c1.062-1.051,2.392-1.81,3.842-2.387c-1.224,0.516-2.44,1.096-3.411,2.018    c0.765-0.627,1.729-1.262,2.908-1.686c4.293-1.406,9.708-0.613,12.169-1.173c4.915,0.181,9.724,4.066,13.263,7.642    c1.176,1.896,3.501,4.846,5.845,6.112c1.229,0.767,2.417,1.507,3.892,2.034c2.191,0.588,3.375-0.843,4.188-0.426    c0.904,0.082,1.783,1.021,2.505,2.035c0.538,0.722,0.24,0.712,1.474,2.022l1.938,0.908c2.604,1.147,5.38,1.938,8.139,2.396    C192.573,401.551,197.626,404.324,203.531,403.85z"/>
	</g>
	<g id="g636">
		<path id="path638" fill="#114684" d="M521.305,454.316c0.03,0.027,0.282-0.457-0.027,0.334c-1.067,1.971-2.486,3.729-4.03,5.653    l-0.065,0.188c-1.312,1.461-2.729,2.939-4.32,4.262c-2.729,2.886-6.354,2.878-10.221,2.816c0.102,0.025,0.146,0.055-0.229,0.039    c-0.781-0.021-1.71-0.16-2.711-0.329l-1.535-0.334l-0.372-0.104c-2.409,1.521-0.711,0.646-1.271,1.089l-0.188,0.818l-0.239,0.965    c-0.052,0.251-0.046,0.321-0.043,0.364c-0.296,0.975-0.596,1.813-0.938,2.549c-0.521,1.141-1.344,2.424-2.038,2.241    c-1.396-0.189-2.722-0.539-4.044-0.979c-2.62-0.95-5.147-2.338-7.529-4.01c-1.224-0.786-2.354-1.729-3.552-2.604    c-2.136-0.453-3.165-0.312-4.82-0.513c-3.021-0.216-6.104-0.521-9.287-0.441c-2.688,0.091-5.338,0.486-7.871,0.872    c-3.73,1.231-7.352,4.46-11.191,4.806c0.675,0.467-8.31,1.271-6.526,1.259c-2.489,0.043-6.181-0.51-6.374-0.508    c-0.689,0.051-2.249-0.392-8.564,1.629c-2.441,0.688-6.211,1.794-7.041,2.119c-1.323,0.492,3.183-0.884,1.854-0.389    c4.42-1.168,9.272-3.228,13.278-2.686c4.729,0.842,9.646,0.929,14.388-0.243c2.359-0.59,4.655-1.525,6.747-2.816    c0.886-0.396,2.438-1.873,2.562-1.696l3.472-0.479c4.617-0.688,9.19-0.358,13.997,0.107c0.812,0.062,2.211,0.174,4.06,0.317    c0.751-0.17,3.086,2.256,5.159,3.413c2.229,1.438,4.861,2.951,7.977,3.88c1.445,0.197,3.229,1.438,5.357-0.146    c1.447-1.453,1.979-3.106,2.498-4.734c0.255-0.819,0.466-1.646,0.646-2.48l0.132-0.64c-2.146,1.388-0.213,0.487-0.531,0.833    l1.266,0.271c1.688,0.314,3.384,0.481,5.062,0.472c3.133-0.014,7.065-0.488,9.246-2.731c4.636-3.829,7.476-7.961,9.01-10.406    c0.124-0.168,0.475-0.771,0.562-1.046c2.264-5.511,6.521-11.825,10.188-15.264c0.809-0.854,1.711-1.55,2.673-2.159    c0.12-0.521,2.125,0.048,3.098-0.006c-0.983-0.155-2.465-0.29-2.75-0.478c1.847,0.348,4.757,0.547,5.573,0.568    c5.284,0.188,2.29-0.079,0.281-0.354c-1.444-0.181,0.521-0.13-1.738-0.383c1.632,0.146,2.45,0.199,4.095,0.272    c0.188-0.021-5.048-0.276-3.897-0.319c1.568,0.148,3.339,0.241,4.975,0.264c-0.562-0.032-5.661-0.326-5.398-0.437    c0.879,0.084,4.581,0.453,4.898,0.312c0.062-0.011-1.568-0.075-2.389-0.132c5.044,0.243,7.742-0.188,3.211-0.134    c1.438,0.05,4.138-0.068,4.992-0.484l0.021-0.027c-0.237,0.184-1.919,0.455-2.598,0.457c0.896-0.062,1.932-0.183,2.562-0.479    c-0.082,0.029-0.219,0.066-0.366,0.104c-0.595,0.172-1.303,0.246-2.021,0.3c0.613-0.039,1.229-0.122,1.781-0.258    c-0.417,0.072-0.939,0.11-1.521,0.14c-2.188,0.121-4.354-0.104-5.562-0.173c-2.688,0.015-4.393-0.794-7.896-0.356    c-2.371,1.349-4.154,3.229-5.854,5.135C526.035,445.294,523.334,449.581,521.305,454.316z"/>
	</g>
	<g id="g644">
		<path id="path646" fill="#00627D" d="M225.516,700.62c0.01-0.039-0.71,0.312,0.358-0.312c0.856-0.484,1.699-0.786,2.625-1.104    c1.056,0.158,2.587-2.136,1.948-3.104c-0.354-2.021-0.925-3.739-1.506-5.757l-0.146-0.269c-0.772-2.79-0.737-6.387-1.019-9.695    c-0.39-6.245-0.568-12.502-0.265-18.663c-0.035,0.157-0.062,0.232-0.029-0.379c0.199-2.681,0.195-5.988,2.771-8.729l0.979-1.342    c0.242-0.356,0.289-0.466,0.312-0.526c0.958-1.438,1.849-2.876,1.993-4.503c0.596-2.551-1.688-5.521-2.486-6.435    c-0.098-0.577,0.43-1.771,0.915-2.729l0.784-1.505c-0.157-0.93,1.534-0.053-0.146-2.454c-4.332-0.81-9.941-0.521-12.308-3.981    c-1.098-8.678,7.652-16.562,14.815-22.734c1.509-1.177,3.545-3.675,2.039-5.84c-0.891-1.925-1.6-3.834-1.586-5.856    c0.437-5.619,3.668-13.882,8.848-16.479c-0.597,0.673,10.376-8.716,7.836-7.179c2.869-2.766,5.123-8.307,4.69-8.666    c-0.05-0.453-0.031-1.396-0.449-3.484c-0.224-1.676-2.3-6.479,2.29-10.619c0.812-0.713,1.776-1.477,2.832-2.094l0.784-0.486    c-0.462,0.879,0.014-0.254-0.026-0.276l0.483-1.683c0.627-2.184,1.162-4.04,1.339-4.74c0.557-2.209-1.575,5.08-1.021,2.87    c-0.68,1.309-0.688,4.839-1.905,4.309c-1.654,1.052-3.306,2.284-4.486,4.097c-2.672,4.015-0.222,8.399-0.548,11.538    c-0.979,6.92-7.56,11.884-13.524,15.937c-4.13,2.161-4.764,6.088-6.728,9.442c-1.521,3.484-2.477,7.765-1.009,11.703    c0.659,1.911,1.826,3.604,1.021,4.438c-0.938,1.222-2.456,2.531-3.854,3.747c-2.868,2.479-5.826,5.062-8.268,8.173    c-0.758,1.103-2.254,2.896-3.576,5.652c-1.062,2.214-4.151,7.318,0.354,11.008c2.019,1.344,4.333,1.788,6.639,2.176l3.523,0.507    l1.784,0.257c-0.288-0.609,0.684,1.378-0.644-1.372l-0.014,0.024l-0.029,0.05l-0.057,0.104l-0.114,0.201l-0.229,0.404    l-0.455,0.818c-0.595,1.119-1.212,2.214-1.646,3.621c-0.729,1.939,1.371,3.438,1.613,4.03c1.24,2.015,0.888,4.302-0.547,6.407    c-1.28,2.129-3.466,4.036-4.211,7.045c-0.562,2.758-0.638,5.394-0.743,8.021c-0.146,5.229-0.002,10.29,0.255,14.961    c0.478,4.688,0.199,8.914,1.62,12.67c0.49,1.744,1.045,3.438,1.217,4.723c0.438,0.948-0.82,0.766-2.061,1.402l-1.573,0.745    c-4.927,2.483-7.349,8.099-9.951,12.408c-1.409,2.096-2.899,4.177-4.962,5.006c-2.163,3.094-1.688,4.625-2.984,6.646    c-1.611,3.374-3.626,6.706-6.184,9.527c1.204-1.301,2.278-2.543,3.101-3.724c-2.178,3.263-5.05,5.92-6.22,6.812    c-0.703,0.562-1.796,1.138-1.735,1.396c-0.701-0.021-1.219-0.026-1.572-0.027c-0.717-0.002-0.811,0.021-0.522,0.062    c0.744,0.199,2.459,0.388,3.729-0.902c1.896-1.337-0.44,0.771,2.311-1.633c-1.999,1.46-2.822,3.362-5.609,2.996    c0.167,1.653,6.979-3.895,5.438-2.741c-1.661,2.048-4.48,3.229-7.104,2.993c0.432-0.625,2.688,0.867,4.673-0.944    c1.851-1.116,3.104-2.679,3.042-2.438c-0.514,0.507-1.867,1.796-3.394,2.707c-1.761,1.353-3.276,0.162-3.53,0.648    c-0.349-0.314,2.833,0.652,3.766-0.742c-8.045,1.229-11.488,3.917-4.963,1.242c-2.396,0.458-5.56,2.303-7.413,4.125l0.015-0.017    c0.906-0.907,2.812-2.22,3.884-2.756c-1.308,0.697-2.55,1.575-3.648,2.568l0.615-0.479c0.869-0.689,1.803-1.324,2.807-1.898    c-0.854,0.493-1.687,1.036-2.458,1.655c0.597-0.44,1.324-0.889,2.126-1.354c3.335-2.1,5.792-1.447,8.705-2.146    c6.975-4.701,11.463-11.89,13.896-19.814C217.535,714.908,219.142,703.903,225.516,700.62z"/>
	</g>
	<switch><text id="text648" transform="matrix(1 0 0 1 24.385 217.2842)" font-family="'DejaVuSans'" font-size="13"><tspan id="trsvg1">Cabinda</tspan></text></switch>
	<switch><text transform="matrix(1 0 0 1 328.3845 197.2842)" font-family="'DejaVuSans'" font-size="13" id="trsvg30-ca" systemLanguage="ca"><tspan id="trsvg2-ca">Distribució geogràfica (1970)</tspan></text><text transform="matrix(1 0 0 1 328.3845 197.2842)" font-family="'DejaVuSans'" font-size="13" id="trsvg30"><tspan id="trsvg2">Distribuição geográfica em 1970.</tspan></text></switch>
	<switch><text transform="matrix(1 0 0 1 328.3845 212.8838)" font-family="'DejaVuSans'" font-size="13" id="trsvg31-ca" systemLanguage="ca"><tspan id="trsvg3-ca">Noms moderns de les ciutats</tspan></text><text transform="matrix(1 0 0 1 328.3845 212.8838)" font-family="'DejaVuSans'" font-size="13" id="trsvg31"><tspan id="trsvg3">Os nomes das cidades foram actualizados.</tspan></text></switch>
	<switch><text id="text650" transform="matrix(1 0 0 1 125.2971 294.1523)" font-family="'DejaVuSans'" font-size="13"><tspan id="trsvg4">N’Zeto</tspan></text></switch>
	<switch><text id="text652" transform="matrix(1 0 0 1 73.9934 362.373)" font-family="'DejaVuSans'" font-size="13"><tspan id="trsvg5">LUANDA</tspan></text></switch>
	<switch><text id="text654-ca" transform="matrix(1 0 0 1 284.2712 395.7188)" font-family="'DejaVuSans'" font-size="13" systemLanguage="ca"><tspan id="trsvg6-ca">Malange</tspan></text><text id="text654" transform="matrix(1 0 0 1 284.2712 395.7188)" font-family="'DejaVuSans'" font-size="13"><tspan id="trsvg6">Malanje</tspan></text></switch>
	<switch><text transform="matrix(1 0 0 1 449.905 391.7363)" font-family="'DejaVuSans'" font-size="13" id="trsvg32"><tspan id="trsvg7">Saurimo</tspan></text></switch>
	<switch><text id="text662" transform="matrix(1 0 0 1 172.0002 474.7188)" font-family="'DejaVuSans'" font-size="13"><tspan id="trsvg8">Sumbe</tspan></text></switch>
	<switch><text id="text664" transform="matrix(1 0 0 1 137.2585 546.5527)" font-family="'DejaVuSans'" font-size="13"><tspan id="trsvg9">Benguela</tspan></text></switch>
	<switch><text id="text666" transform="matrix(1 0 0 1 231.1926 528.4541)" font-family="'DejaVuSans'" font-size="13"><tspan id="trsvg10">Huambo</tspan></text></switch>
	<switch><text id="text668" transform="matrix(1 0 0 1 390.2517 498.2705)" font-family="'DejaVuSans'" font-size="13"><tspan id="trsvg11">Luena</tspan></text></switch>
	<switch><text id="text670" transform="matrix(1 0 0 1 327.7634 612.9004)" font-family="'DejaVuSans'" font-size="13"><tspan id="trsvg12">Menongue</tspan></text></switch>
	<switch><text id="text672" transform="matrix(1 0 0 1 28.7375 646.8096)" font-family="'DejaVuSans'" font-size="13"><tspan id="trsvg13">Namibe</tspan></text></switch>
	
		<switch><text id="text674" transform="matrix(0.6947 -0.7193 0.7193 0.6947 186.7029 735.6191)" font-family="'DejaVuSerifCondensed'" font-size="12"><tspan id="trsvg14">Kunene</tspan></text></switch>
	
		<switch><text transform="matrix(0.9969 0.0788 -0.0788 0.9969 192.4509 395.6094)" font-family="'DejaVuSerifCondensed-Italic'" font-size="12.0008" id="trsvg33"><tspan id="trsvg15">Cuanza</tspan></text></switch>
	<switch><text transform="matrix(1 0 0 1 451.2712 462.8496)" font-family="'DejaVuSerifCondensed-Italic'" font-size="12" id="trsvg34"><tspan id="trsvg16">Kasai</tspan></text></switch>
	<ellipse id="ellipse680" stroke="#000000" cx="89.6" cy="216.197" rx="2" ry="2.57"/>
	<ellipse id="ellipse682" stroke="#000000" cx="119.5" cy="291.201" rx="2" ry="2.57"/>
	<ellipse id="ellipse684" stroke="#000000" cx="139.35" cy="366.071" rx="2" ry="2.57"/>
	<ellipse id="ellipse686" stroke="#000000" cx="279.509" cy="392.774" rx="2" ry="2.569"/>
	<ellipse id="ellipse688" stroke="#000000" cx="468.594" cy="398.719" rx="2" ry="2.569"/>
	<ellipse id="ellipse690" stroke="#000000" cx="436.651" cy="494.083" rx="2" ry="2.569"/>
	<ellipse id="ellipse692" stroke="#000000" cx="148.925" cy="529.176" rx="2" ry="2.569"/>
	<ellipse id="ellipse694" stroke="#000000" cx="247.071" cy="535.697" rx="2" ry="2.569"/>
	<ellipse id="ellipse696" stroke="#000000" cx="90.6" cy="645.197" rx="2" ry="2.569"/>
	<ellipse id="ellipse698" stroke="#000000" cx="340.5" cy="618.197" rx="2" ry="2.569"/>
	<ellipse id="ellipse700" stroke="#000000" cx="166.96" cy="468.879" rx="2" ry="2.569"/>
</g>
<g id="angola">
	<path id="path749" fill="none" stroke="#000000" stroke-width="3" d="M77.347,708.483c2.555-5.535-6.416-9.666-3.667-24.666   c-0.788-4.595-5.833-4-2.583-8.5c5.5-2.5,10.75-3.25,13.75-28c2.25-2.25,4-8,3.75-14.25c5.25-7,8.75-19,9-40.25   c0.026-2.705,2.61-4.595,7.25-12c2.5-15,3-21.5,12.5-26.75c4.5-7.5,6.665-7.283,6.75-9.75c0.229-6.732,2.75-6.25,8.115-14.011   c4.885,0.011,6.385-0.739,11.135-1.989c5.25-5.75,6.256-8.554,6.5-15.75c8.75-1,5.75-10.75,12.25-18   c-1.75-5.5,0.191-22.312,1-28.25c1.25-9.25-5.75-12.75-5-25c-6-2.75-8.25-5.5-11.75-13c0.312-9.445-1-13.001-9.5-18.501   c0.226-6.785-1.75-8.75-5.25-10.75c1-16.5-3.275-15.982-6.75-23.75c0.188-5.787,7.062-1.711,7.25-7.25   c5-9.25,10.058-4.184,10.25-10c0.135-4.093-4.103-7.854-4-11.75c0.25-10-1.25-13.25-10.5-21.75c-0.5-11.5-4.571-14.5-11-23.5   c-2.5-23-6.5-28.25-14.5-32.25c-2.093-7.75-2.093-15-11.75-23.25c0.5-3.75,0.25-7.75,0.25-7.75h12.5c0,0,3.5-4,8-4.5s9-3.5,14.5-3   s3.5-0.611,10-0.056c6.5,0.555,11,2.056,19.5-2.444c8.5,2.5,6.5,2.5,11,2.5c4.5-1.5,3.5-6.155,8-5.328   c4.5,0.828,3.5,5.902,7.5,6.365s109.5-2.037,109.5-2.037s-1.5,4.5,0,8.5c3,4,7.495,4,7.495,7c0,4.5-2.995,8-2.995,10   c0,3,2.495,4,2.995,12c6,5.5,6,8,6.5,11c3,3,2,3,0,10c6.5,7,12.5,12,12.5,14s2,6.5,2.5,6.5c1,0,7,3,11.5,10.5   c4.5,9,2.313,11,6.656,10c4.344-1,6.206-2.5,13.274-3.5c7.063,1.5,4.856,1.5,8.965-4c3.104,0,17.104,2.5,18.604,1.5s2.5-6.5,7-5.5   c6,1,4.188,5.5,4.188,5.5l27.764-0.5c0,0,2.553,0.5,2.553-18.5c4-1,4.5-1.5,5-5s-0.5-4.5,0-8s3-6,2.5-11.5c4.5,0,32.5,0.5,32.5,0.5   l3.5-2.846h14c0,0,1.5,3.846,0,6.846c-1.5,4.5-1.5,4.5-1.5,4.5l50.841,1.5c0,0,4.659,1.5,4.659,8.5c4.5,6,5,5,3,9s-4.5,4.5-4.5,10   s6.736,14.5,5.618,26.5c-2.618,6.5-4.618,12-4.618,18.5s1,13,0.5,16.5s1.486,21.5,4.243,25c5.757,3,5.257-1.004,11.757,6   c0,10,3.5,21,3.5,21c-2,7,1.5,13.5,0,17s-9.5,8-3.5,16.5c7-1,9-1,15-6c7,2.5,10.5,3.5,14,0c6,4,12.5,3.5,21.5-3   c10.5,2.5,13.5,3,15.5,1c3,2.5,8.5,2.5,8.5,2.5c4-4.5,3.5-9,7.5-4.5c-0.5,8-2.5,6.5,0,12c0,7.5,2.5,8,2.5,13s-3,8-3,11s-2,3-2,10   s2.5,6.5,2.5,15.5s-7,12-7.5,20.5c4.5,8.5,4.5,8.5,4.5,8.5l-95,2.5l0.5,142.5c0,0,4.5,6,6.5,15c8,8,11,8.5,15,11.5   c1,6.5,1,6.5,1,6.5s5,1.5,10,6.5s13,9.5,14,12.5c9,3,12.5,7.5,14.5,11c-12,3-82,17.5-82,17.5c-7-4-12-8-18.5-7.5   c-9,3.5-11,3.5-18,7.5c-7.5-6.5-3-10.5-24.5-9.5s-23,1-29,1s-9.5-2-9.5-2s-4.5,1-16.499,0c-11-5.5-9-2.5-13.5-5.5s-9-10.5-9-10.5   s-199.495-1-203.495-1c-5.5-4-7.5-4.5-9.5-6.5s-3.5,0-7.5-2s-2-7.5-4-8.5s-3.5,1.5-8-0.5s-7.5-4-15.5-1.5s-4.5,9.5-12,12.5   s-12-2-12-2s0.5,2.5-6,2s-5-3.5-10-4s-8,4.5-11.5,4.5s-3.445-1.834-1.945-11.334C72.128,724.05,73.347,717.149,77.347,708.483z"/>
	<path id="path709" fill="none" stroke="#000000" stroke-width="2.9991" d="M101.5,220.876v-26.709h2.787l3.481-7.011   c4.181,0.696,4.876-6.271,6.271-9.056c4.184,0,9.752-2.253,9.059-8.092c-4.875-4.446-10.771-3.75-10.771-3.75s2.468-4.145,0-4.858   c-2.47-0.714-4.559,0.517-5.95,8.608c-5.569,1.823-7.662-3.216-10.445,0c-2.787,6.002-1.396,12.317-4.184,12.643   c-2.786,0.326-2.09-5.897-6.271,0c-3.481,5.898-6.966,5.988-8.357,11.517c4.876,7.618,9.752,16.127,9.752,19.187   c0,3.061-3.479,2.234-4.179,7.522c-0.697,5.287-2.786,2.672,3.479,3.979C92.445,226.164,101.5,220.876,101.5,220.876z"/>
</g>
<g id="legend">
	<g id="g5">
		<rect id="rect9" x="476.877" y="77.458" fill="#A02932" stroke="#000000" stroke-width="0.5" width="26.549" height="15.044"/>
	</g>
	<g id="g29">
		<rect id="rect33" x="165.684" y="129.458" fill="#62AEC9" stroke="#000000" stroke-width="0.5" width="26.549" height="15.044"/>
	</g>
	<g id="g47">
		<rect id="rect49" x="43.633" y="129.458" fill="#ECC65F" stroke="#000000" stroke-width="0.5" width="26.554" height="15.044"/>
		<rect id="rect51" x="43.633" y="129.458" fill="#ECC65F" stroke="#000000" stroke-width="0.5" width="26.554" height="15.044"/>
	</g>
	<g id="g53">
		<rect id="rect55" x="43.633" y="103.458" fill="#F36F40" stroke="#000000" stroke-width="0.5" width="26.554" height="15.044"/>
		<rect id="rect57" x="43.633" y="103.458" fill="#F36F40" stroke="#000000" stroke-width="0.5" width="26.554" height="15.044"/>
	</g>
	<g id="g59">
		<rect id="rect61" x="43.633" y="77.458" fill="#EFBA83" stroke="#000000" stroke-width="0.5" width="26.554" height="15.044"/>
		<rect id="rect63" x="43.633" y="77.458" fill="none" stroke="#000000" stroke-width="0.5" width="26.554" height="15.044"/>
	</g>
	<switch><text id="text65" transform="matrix(1 0 0 1 79.1462 89.8779)" font-family="'DejaVuSans'" font-size="13"><tspan id="trsvg17">Ovambo</tspan></text></switch>
	<switch><text id="text67" transform="matrix(1 0 0 1 79.1462 115.7959)" font-family="'DejaVuSans'" font-size="13"><tspan id="trsvg18">Herero</tspan></text></switch>
	<switch><text id="text69" transform="matrix(1 0 0 1 79.1462 141.7129)" font-family="'DejaVuSans'" font-size="13"><tspan id="trsvg19">Xindonga</tspan></text></switch>
	<g id="g35">
		<rect id="rect37" x="165.684" y="103.458" fill="#6A89A8" stroke="#000000" stroke-width="0.5" width="26.55" height="15.044"/>
		<rect id="rect39" x="165.684" y="103.458" fill="#6A89A8" stroke="#000000" stroke-width="0.5" width="0" height="15.044"/>
	</g>
	<g id="g41">
		<rect id="rect43" x="165.684" y="77.458" fill="#89BB54" stroke="#000000" stroke-width="0.5" width="26.55" height="15.044"/>
		<polygon id="rect45" fill="#89BB54" stroke="#000000" stroke-width="0.5" points="165.684,77.458 192.234,77.458 192.234,77.458       "/>
	</g>
	<switch><text id="text71" transform="matrix(1 0 0 1 201.2 89.8779)" font-family="'DejaVuSans'" font-size="13"><tspan id="trsvg20">Ganguela</tspan></text></switch>
	<switch><text id="text73" transform="matrix(1 0 0 1 201.2 115.7959)" font-family="'DejaVuSans'" font-size="13"><tspan id="trsvg21">Ovimbundu</tspan></text></switch>
	<switch><text id="text75" transform="matrix(1 0 0 1 201.2 141.7129)" font-family="'DejaVuSans'" font-size="13"><tspan id="trsvg22">Nhaneca-Humbe</tspan></text></switch>
	<g id="g11">
		<rect id="rect13" x="327.681" y="129.458" fill="#AE955F" stroke="#000000" stroke-width="0.5" width="26.553" height="15.044"/>
		<rect id="rect15" x="327.681" y="129.458" fill="#AE955F" stroke="#000000" stroke-width="0.5" width="26.553" height="15.044"/>
	</g>
	<g id="g17">
		<rect id="rect19" x="327.681" y="103.458" fill="#DDD4B3" stroke="#000000" stroke-width="0.5" width="26.553" height="15.044"/>
		<rect id="rect21" x="327.681" y="103.458" fill="#DDD4B3" stroke="#000000" stroke-width="0.5" width="26.553" height="15.044"/>
	</g>
	<g id="g23">
		<rect id="rect25" x="327.681" y="77.458" fill="#F8F6E4" stroke="#000000" stroke-width="0.5" width="26.553" height="15.044"/>
	</g>
	<switch><text id="text77" transform="matrix(1 0 0 1 364.9705 89.8779)" font-family="'DejaVuSans'" font-size="13"><tspan id="trsvg23">Bakongo</tspan></text></switch>
	<switch><text id="text79" transform="matrix(1 0 0 1 364.9705 115.7959)" font-family="'DejaVuSans'" font-size="13"><tspan id="trsvg24">Ambundu</tspan></text></switch>
	<switch><text id="text81" transform="matrix(1 0 0 1 364.9705 141.7129)" font-family="'DejaVuSans'" font-size="13"><tspan id="trsvg25">Chokwe</tspan></text></switch>
	<switch><text id="text83" transform="matrix(1 0 0 1 513.0701 89.8789)" font-family="'DejaVuSans'" font-size="13"><tspan id="trsvg26">Khoisan</tspan></text></switch>
	<switch><text id="text85-ca" transform="matrix(1 0 0 1 206.7336 62.0557)" font-family="'DejaVuSans'" font-size="18" systemLanguage="ca"><tspan id="trsvg27-ca">Bantús</tspan></text><text id="text85" transform="matrix(1 0 0 1 206.7336 62.0557)" font-family="'DejaVuSans'" font-size="18"><tspan id="trsvg27">Bantu</tspan></text></switch>
	<switch><text id="text87-ca" transform="matrix(1 0 0 1 488.1843 62.0547)" font-family="'DejaVuSans'" font-size="18" systemLanguage="ca"><tspan id="trsvg28-ca">Altres</tspan></text><text id="text87" transform="matrix(1 0 0 1 488.1843 62.0547)" font-family="'DejaVuSans'" font-size="18"><tspan id="trsvg28">outros</tspan></text></switch>
	<switch><text id="text89-ca" transform="matrix(1 0 0 1 150.2209 33.4395)" font-family="'DejaVuSans-Bold'" font-size="24" systemLanguage="ca"><tspan id="trsvg29-ca">Grups ètnics d'Angola</tspan></text><text id="text89" transform="matrix(1 0 0 1 150.2209 33.4395)" font-family="'DejaVuSans-Bold'" font-size="24"><tspan id="trsvg29">Grupos étnicos de Angola</tspan></text></switch>
	<line fill="none" stroke="#000000" x1="43.821" y1="69.5" x2="422.891" y2="69.5"/>
	<line fill="none" stroke="#000000" x1="476.76" y1="69.5" x2="559.167" y2="69.5"/>
</g>
</svg>
